<svg xmlns="http://www.w3.org/2000/svg" style="display: none;">
    <symbol id="SearchIcon" viewBox="0 0 58.95 57.55">
        <g id="_Слой_6">
            <g>
                <circle class="cls-2" cx="20.81" cy="20.81" r="19.81"/>
                <rect class="cls-1" x="32.8" y="43.26" width="27.43" height="3.73" transform="translate(45.53 -19.68) rotate(45)"/>
            </g>
        </g>
    </symbol>

    <symbol id="LogoIcon" viewBox="0 0 187 160" width="100%" height="100%" fill="none">
        <g id="_Слой_6">
            <g>
                <path d="M128.407 117.568L99.7333 79.616L112.325 72.512L140.936 110.4L128.407 117.568Z" fill="#B5B5B5"/>
                <path d="M65.2007 40.1279H49.181V109.376H65.2007V40.1279Z" fill="#898989"/>
                <path d="M132.396 121.984C139.04 121.984 144.426 116.74 144.426 110.272C144.426 103.804 139.04 98.5601 132.396 98.5601C125.752 98.5601 120.366 103.804 120.366 110.272C120.366 116.74 125.752 121.984 132.396 121.984Z" fill="white"/>
                <path d="M131.897 116.096C135.03 116.096 137.57 113.489 137.57 110.272C137.57 107.055 135.03 104.448 131.897 104.448C128.765 104.448 126.225 107.055 126.225 110.272C126.225 113.489 128.765 116.096 131.897 116.096Z" fill="#898989"/>
                <path d="M93.2507 35.84C96.1181 35.328 100.481 34.688 105.717 34.688C111.826 34.688 115.94 34.688 120.677 36.864C122.672 37.76 127.783 40.128 131.336 46.08C135.575 53.12 136.198 62.976 132.209 70.912C131.835 71.616 128.095 78.976 120.428 81.856C118.932 82.432 116.937 82.944 107.4 82.816C101.728 82.752 96.9907 82.432 93.6871 82.24" fill="#B5B5B5"/>
                <path d="M99.6086 49.472C100.855 49.216 102.725 48.96 105.032 48.96C107.712 48.96 109.457 48.96 111.514 49.856C112.387 50.24 114.631 51.2 116.189 53.696C117.997 56.64 118.309 60.736 116.563 64.064C116.439 64.384 114.756 67.392 111.452 68.672C110.766 68.928 109.956 69.12 105.78 69.056C103.286 68.992 101.229 68.928 99.7956 68.8" fill="white"/>
                <path d="M101.229 34.624H85.2097V117.504H101.229V34.624Z" fill="#1A357A"/>
                <path d="M117.748 67.7759H29.4214V84.2239H117.748V67.7759Z" fill="#1A357A"/>
                <path d="M66.198 39.2319C63.767 51.9039 47.498 60.9279 43.197 57.5999C39.457 54.7199 43.384 41.5999 49.9914 33.5359" fill="white"/>
            </g>
        </g>
    </symbol>

    <symbol id="StarIcon" width="40" height="35" viewBox="0 0 40 35" fill="none">
        <path d="M20 0L26.4656 10.5458L39.0211 13.1287L30.4616 22.2292L31.7557 34.3713L20 29.45L8.2443 34.3713L9.53838 22.2292L0.97887 13.1287L13.5344 10.5458L20 0Z" fill="#FFDA47"/>
    </symbol>

    <symbol id="GeoLocationICon" width="90" height="89" viewBox="0 0 90 89" fill="none">
        <path d="M44.1131 80.462C43.2577 80.4479 42.5284 80.1943 41.9253 79.7009C41.3223 79.2076 40.8744 78.5658 40.5818 77.7755C39.4764 74.3735 38.062 71.178 36.3387 68.1889C34.6764 65.2008 32.3199 61.6876 29.2692 57.6495C26.2184 53.6113 23.7452 49.7639 21.8494 46.1073C20.0148 42.4516 19.1397 38.0565 19.224 32.9217C19.3401 25.8539 21.913 19.9142 26.9427 15.1024C32.0346 10.2312 38.155 7.85432 45.304 7.97177C52.453 8.08921 58.4615 10.6653 63.3295 15.7001C68.2595 20.6755 70.6665 26.6971 70.5504 33.7649C70.4601 39.2621 69.3154 43.8356 67.1162 47.4854C64.9792 51.0758 62.5066 54.6304 59.6984 58.1493C56.3274 62.4446 53.7626 66.0279 52.0041 68.8994C50.3077 71.7115 48.8833 74.7094 47.7308 77.8929C47.4114 78.7336 46.9117 79.3901 46.2316 79.8623C45.6136 80.2752 44.9075 80.475 44.1131 80.462ZM44.7383 42.4046C47.3047 42.4468 49.4882 41.6065 51.289 39.8838C53.0897 38.161 54.011 36.0311 54.0526 33.4939C54.0943 30.9568 53.2436 28.7977 51.5003 27.0167C49.7571 25.2358 47.6024 24.3242 45.0361 24.2821C42.4697 24.2399 40.2862 25.0802 38.4854 26.8029C36.6847 28.5257 35.7635 30.6556 35.7218 33.1928C35.6801 35.7299 36.5309 37.889 38.2741 39.6699C40.0173 41.4509 42.172 42.3625 44.7383 42.4046Z" fill="#1A357A"/>
    </symbol>

    <symbol id="PhoneIcon" width="82" height="84" viewBox="0 0 82 84" fill="none">
        <g clip-path="url(#clip0_116_937)">
            <path d="M66.0978 61.6443L64.4229 70.487C64.2706 71.3085 63.9555 72.0906 63.4979 72.783C63.0403 73.4755 62.4501 74.0631 61.7653 74.5083C61.0805 74.9534 60.3161 75.2463 59.521 75.3682C58.726 75.49 57.9178 75.4381 57.1483 75.2158C48.6426 72.5838 40.8801 67.9029 34.4845 61.5492C28.5165 55.7309 23.8737 48.5968 20.8857 40.6534C17.5683 32.0595 16.2557 22.7418 17.0542 13.4552C17.138 12.6267 17.3864 11.8228 17.7837 11.0946C18.1809 10.3664 18.7183 9.7299 19.3616 9.22561C20.0049 8.72131 20.7399 8.36027 21.52 8.16548C22.3001 7.97069 23.1081 7.94642 23.8926 8.09421L32.3669 9.69935C33.7405 9.94494 34.9735 10.7032 35.8363 11.8329C36.699 12.9625 37.1326 14.3865 37.0562 15.8393C36.8778 18.7369 37.0149 21.6412 37.4647 24.4966C37.6449 25.6236 37.51 26.7857 37.0759 27.8454C36.6418 28.905 35.9268 29.8176 35.0155 30.4752L30.719 33.5391C33.3424 41.6802 38.0406 48.8994 44.3177 54.435L48.6143 51.371C49.5324 50.724 50.6055 50.3615 51.7064 50.3265C52.8073 50.2915 53.8898 50.5855 54.8258 51.1736C57.1996 52.6569 59.7313 53.8535 62.3726 54.7404C63.7065 55.2023 64.8231 56.1608 65.5099 57.4338C66.1968 58.7067 66.406 60.2052 66.0978 61.6443Z" stroke="#1A357A" stroke-width="4" stroke-linecap="round" stroke-linejoin="round"/>
        </g>
        <defs>
            <clipPath id="clip0_116_937">
                <rect width="69" height="72" fill="white" transform="translate(13.3994) rotate(10.7255)"/>
            </clipPath>
        </defs>
    </symbol>

    <symbol id="EmailIcon" width="67" height="67" viewBox="0 0 67 67" fill="none">
        <path fill-rule="evenodd" clip-rule="evenodd" d="M0 13.1607C0 9.19606 3.21396 5.98212 7.17857 5.98212H59.8214C63.7859 5.98212 67 9.19606 67 13.1607V14.7972L35.3348 35.911C34.8882 36.1982 34.24 36.4031 33.5 36.4031C32.76 36.4031 32.1117 36.1982 31.6651 35.911L0 14.7972V13.1607ZM0 21.9872V53.8393C0 57.8037 3.21396 61.0178 7.17857 61.0178H59.8214C63.7859 61.0178 67 57.8037 67 53.8393V21.9872L38.6094 40.9176C37.1036 41.8978 35.2953 42.3853 33.5 42.3853C31.7047 42.3853 29.8965 41.8976 28.3906 40.9174L28.3629 40.8994L0 21.9872Z" fill="#1A357A"/>
    </symbol>

    <symbol id="FaceBookIcon" width="61" height="57" viewBox="0 0 61 57" fill="none">
        <path d="M45.75 4.75H38.125C34.7545 4.75 31.5221 6.00111 29.1388 8.22811C26.7556 10.4551 25.4167 13.4756 25.4167 16.625V23.75H17.7917V33.25H25.4167V52.25H35.5833V33.25H43.2083L45.75 23.75H35.5833V16.625C35.5833 15.9951 35.8511 15.391 36.3278 14.9456C36.8044 14.5002 37.4509 14.25 38.125 14.25H45.75V4.75Z" stroke="#7B9ABB" stroke-width="4" stroke-linecap="round" stroke-linejoin="round"/>
    </symbol>


    <symbol id="InstagramIcon" width="57" height="58" viewBox="0 0 57 58" fill="none" >
        <path d="M41.5625 15.7083H41.5863M16.625 4.83331H40.375C46.9334 4.83331 52.25 10.2432 52.25 16.9166V41.0833C52.25 47.7568 46.9334 53.1666 40.375 53.1666H16.625C10.0666 53.1666 4.75 47.7568 4.75 41.0833V16.9166C4.75 10.2432 10.0666 4.83331 16.625 4.83331ZM38 27.4775C38.2931 29.4887 37.9555 31.5428 37.0352 33.3476C36.1149 35.1524 34.6587 36.6159 32.8739 37.53C31.089 38.4442 29.0663 38.7623 27.0935 38.4393C25.1207 38.1163 23.2982 37.1685 21.8852 35.7308C20.4723 34.2931 19.5409 32.4386 19.2234 30.4312C18.906 28.4237 19.2187 26.3656 20.117 24.5494C21.0154 22.7332 22.4537 21.2515 24.2273 20.3151C26.001 19.3786 28.0197 19.0351 29.9963 19.3333C32.0124 19.6375 33.879 20.5935 35.3203 22.0601C36.7615 23.5266 37.701 25.4259 38 27.4775Z" stroke="#7B9ABB" stroke-width="4" stroke-linecap="round" stroke-linejoin="round"/>
    </symbol>

    <symbol id="EmailFormIcon" width="27" height="17" viewBox="0 0 27 17" fill="none" >
        <path d="M0 0V2.73438L13.3611 8.20312L26.7222 2.73438V0H0ZM0 5.46875V16.4062H26.7222V5.46875L13.3611 10.9375L0 5.46875Z" fill="#0D3290" fill-opacity="0.59"/>
    </symbol>

    <symbol id="LockFormIcon" width="25" height="29" viewBox="0 0 25 29"  fill="none" >
        <path d="M12.3333 0C7.81111 0 4.11111 3.68437 4.11111 8.1875V12.2812H0V28.6562H24.6667V12.2812H20.5556V8.1875C20.5556 3.68437 16.8556 0 12.3333 0ZM12.3333 4.09375C14.6356 4.09375 16.4444 5.895 16.4444 8.1875V12.2812H8.22222V8.1875C8.22222 5.895 10.0311 4.09375 12.3333 4.09375Z" fill="#0D3290" fill-opacity="0.59"/>
    </symbol>

    <symbol id="DateFormIcon" width="26" height="28" viewBox="0 0 26 28"  fill="none" >
        <path d="M7.33333 20.9602V20.8571M13.3333 20.9602V20.8571M13.3333 15.3714V15.2683M18.6667 15.3714V15.2683M3.33333 9.88567H22M5.74603 2V4.05738M19.3333 2V4.05713M19.3333 4.05713H6C3.79086 4.05713 2 5.89915 2 8.1714V21.8857C2 24.158 3.79086 26 6 26H19.3333C21.5425 26 23.3333 24.158 23.3333 21.8857L23.3333 8.1714C23.3333 5.89915 21.5425 4.05713 19.3333 4.05713Z" stroke="#6B81B8" stroke-width="4" stroke-linecap="round" stroke-linejoin="round"/>
    </symbol>

    <symbol id="AddressFormIcon" width="28" height="28" viewBox="0 0 28 28" fill="none">
    <path d="M10.25 25.6667V14H17.75V25.6667M2.75 10.5L14 2.33337L25.25 10.5V23.3334C25.25 23.9522 24.9866 24.5457 24.5178 24.9833C24.0489 25.4209 23.413 25.6667 22.75 25.6667H5.25C4.58696 25.6667 3.95107 25.4209 3.48223 24.9833C3.01339 24.5457 2.75 23.9522 2.75 23.3334V10.5Z" stroke="#6B81B8" stroke-width="4" stroke-linecap="round" stroke-linejoin="round"/>
    </symbol>

    <symbol id="PhoneFormIcon" width="24" height="25" viewBox="0 0 24 25" fill="none">
    <g clip-path="url(#clip0_147_121)">
        <rect width="24" height="25" fill="white"/>
        <path d="M21.9999 17.625V20.75C22.0011 21.0401 21.944 21.3273 21.8324 21.5931C21.7209 21.8589 21.5572 22.0975 21.352 22.2936C21.1468 22.4897 20.9045 22.6391 20.6407 22.732C20.3769 22.8249 20.0973 22.8595 19.8199 22.8334C16.7428 22.4851 13.7869 21.3898 11.1899 19.6354C8.77376 18.0361 6.72527 15.9023 5.18993 13.3854C3.49991 10.6679 2.44818 7.57397 2.11993 4.35419C2.09494 4.06613 2.12781 3.77581 2.21643 3.50171C2.30506 3.22761 2.4475 2.97574 2.6347 2.76212C2.82189 2.54851 3.04974 2.37784 3.30372 2.26098C3.55771 2.14412 3.83227 2.08363 4.10993 2.08335H7.10993C7.59524 2.07838 8.06572 2.25739 8.43369 2.58703C8.80166 2.91667 9.04201 3.37444 9.10993 3.87502C9.23656 4.87509 9.47138 5.85703 9.80993 6.8021C9.94448 7.17494 9.9736 7.58014 9.89384 7.96969C9.81408 8.35923 9.6288 8.7168 9.35993 9.00002L8.08993 10.3229C9.51349 12.9308 11.5864 15.0901 14.0899 16.5729L15.3599 15.25C15.6318 14.97 15.9751 14.7769 16.3491 14.6939C16.723 14.6108 17.112 14.6411 17.4699 14.7813C18.3772 15.1339 19.3199 15.3785 20.2799 15.5104C20.7657 15.5818 21.2093 15.8367 21.5265 16.2266C21.8436 16.6165 22.0121 17.1142 21.9999 17.625Z" fill="white" stroke="#6B81B8" stroke-width="3" stroke-linecap="round" stroke-linejoin="round"/>
    </g>
    <defs>
        <clipPath id="clip0_147_121">
            <rect width="24" height="25" fill="white"/>
        </clipPath>
    </defs>
    </symbol>

    <symbol id="HumanFormIcon" width="24" height="20" viewBox="0 0 24 20" fill="none">
        <path d="M12 0C8.7 0 6 2.8 6 6.25C6 9.7 8.7 12.5 12 12.5C15.3 12.5 18 9.7 18 6.25C18 2.8 15.3 0 12 0ZM5.73 12.5C2.55 12.625 0 14.8 0 17.5V20H24V17.5C24 14.8 21.48 12.625 18.27 12.5C16.65 14.025 14.43 15 12 15C9.57 15 7.35 14.025 5.73 12.5Z" fill="#0D3290" fill-opacity="0.59"/>
    </symbol>


    <symbol id="HumanIcon" width="35" height="37" viewBox="0 0 35 37" fill="none">
        <path d="M1.1001 33.7515C1.1001 26.9869 6.48867 21.5032 17.5001 21.5032C28.5115 21.5032 33.9001 26.9869 33.9001 33.7515C33.9001 34.8276 33.1514 35.7 32.2279 35.7H2.77225C1.84875 35.7 1.1001 34.8276 1.1001 33.7515Z" stroke="#325CC8" stroke-width="2"/>
        <path d="M23.6501 7.75005C23.6501 11.3123 20.8966 14.2 17.5001 14.2C14.1035 14.2 11.3501 11.3123 11.3501 7.75005C11.3501 4.18781 14.1035 1.30005 17.5001 1.30005C20.8966 1.30005 23.6501 4.18781 23.6501 7.75005Z" stroke="#325CC8" stroke-width="2"/>
    </symbol>

    <symbol id="SmileIcon"  width="35" height="34" viewBox="0 0 35 34" fill="none" >
        <path d="M12.82 12.2V11.2C12.2677 11.2 11.82 11.6477 11.82 12.2H12.82ZM12.9754 12.2H13.9754C13.9754 11.6477 13.5277 11.2 12.9754 11.2V12.2ZM22.18 12.2V11.2C21.6277 11.2 21.18 11.6477 21.18 12.2H22.18ZM22.3182 12.2H23.3182C23.3182 11.6477 22.8704 11.2 22.3182 11.2V12.2ZM12.9754 12.3281V13.3281C13.5277 13.3281 13.9754 12.8804 13.9754 12.3281H12.9754ZM12.82 12.3281H11.82C11.82 12.8804 12.2677 13.3281 12.82 13.3281V12.3281ZM22.3182 12.3281V13.3281C22.8704 13.3281 23.3182 12.8804 23.3182 12.3281H22.3182ZM22.18 12.3281H21.18C21.18 12.8804 21.6277 13.3281 22.18 13.3281V12.3281ZM12.9481 21.3485C12.6627 20.8757 12.0481 20.7237 11.5752 21.0091C11.1024 21.2945 10.9504 21.9091 11.2358 22.382L12.9481 21.3485ZM23.7643 22.382C24.0496 21.9091 23.8977 21.2945 23.4248 21.0091C22.952 20.7237 22.3373 20.8757 22.0519 21.3485L23.7643 22.382ZM32.1 17C32.1 25.3083 25.5397 32 17.5 32V34C26.6917 34 34.1 26.3648 34.1 17H32.1ZM17.5 32C9.46038 32 2.90002 25.3083 2.90002 17H0.900024C0.900024 26.3648 8.30838 34 17.5 34V32ZM2.90002 17C2.90002 8.69171 9.46038 2 17.5 2V0C8.30838 0 0.900024 7.63517 0.900024 17H2.90002ZM17.5 2C25.5397 2 32.1 8.69171 32.1 17H34.1C34.1 7.63518 26.6917 0 17.5 0V2ZM12.82 13.2H12.9754V11.2H12.82V13.2ZM22.18 13.2H22.3182V11.2H22.18V13.2ZM11.9754 12.2V12.3281H13.9754V12.2H11.9754ZM12.9754 11.3281H12.82V13.3281H12.9754V11.3281ZM13.82 12.3281V12.2H11.82V12.3281H13.82ZM21.3182 12.2V12.3281H23.3182V12.2H21.3182ZM22.3182 11.3281H22.18V13.3281H22.3182V11.3281ZM23.18 12.3281V12.2H21.18V12.3281H23.18ZM17.5 23.9999C15.6079 23.9999 13.9212 22.9608 12.9481 21.3485L11.2358 22.382C12.5375 24.5389 14.8449 25.9999 17.5 25.9999V23.9999ZM22.0519 21.3485C21.0789 22.9608 19.3922 23.9999 17.5 23.9999V25.9999C20.1551 25.9999 22.4625 24.5389 23.7643 22.382L22.0519 21.3485Z" fill="#325CC8"/>
    </symbol>

    <symbol  id="ShevronIcon" width="24" height="14" viewBox="0 0 24 14" fill="none">
        <path d="M23 1L12 13L1 1" stroke="#325CC8" stroke-width="2" stroke-linecap="round" stroke-linejoin="round"/>
    </symbol>


    <symbol  id="SmallShevronIcon" width="17" height="10" viewBox="0 0 17 10" fill="none" >
        <path d="M16 1L8.5 9L1 1" stroke="#325CC8" stroke-width="2" stroke-linecap="round" stroke-linejoin="round"/>
    </symbol>


    <symbol id="LocationIconWhite" width="24" height="32" viewBox="0 0 24 32" fill="none">
        <path d="M11.4566 31.7697C11.0747 31.7634 10.7491 31.6551 10.4797 31.4446C10.2103 31.2341 10.0102 30.9604 9.87929 30.6234C9.38475 29.1728 8.75233 27.8102 7.98204 26.5355C7.23903 25.2612 6.18593 23.7628 4.82274 22.0405C3.45955 20.3181 2.35422 18.6773 1.50676 17.1179C0.686579 15.559 0.294497 13.6852 0.330514 11.4964C0.380092 8.48357 1.52679 5.95238 3.7706 3.90282C6.04211 1.82796 8.7736 0.816705 11.9651 0.869047C15.1566 0.921389 17.8397 2.02145 20.0144 4.16923C22.2169 6.29171 23.2933 8.85935 23.2437 11.8722C23.2052 14.2155 22.6956 16.1647 21.715 17.7198C20.7622 19.2496 19.6595 20.7641 18.407 22.2633C16.9035 24.0931 15.7597 25.6198 14.9756 26.8433C14.2192 28.0415 13.5842 29.319 13.0708 30.6757C12.9285 31.034 12.7056 31.3137 12.4021 31.5148C12.1264 31.6905 11.8112 31.7755 11.4566 31.7697ZM11.7236 15.5469C12.8692 15.5656 13.8437 15.2081 14.6471 14.4744C15.4504 13.7406 15.861 12.8329 15.8788 11.7514C15.8966 10.6699 15.5161 9.74923 14.7373 8.98949C13.9585 8.22975 12.9963 7.84048 11.8507 7.82169C10.705 7.8029 9.73052 8.16041 8.92718 8.8942C8.12384 9.62799 7.71327 10.5356 7.69547 11.6172C7.67768 12.6987 8.05816 13.6193 8.83692 14.3791C9.61569 15.1388 10.5779 15.5281 11.7236 15.5469Z" fill="white"/>
    </symbol>

    <symbol id="facebookIcon" width="33" height="53" viewBox="0 0 33 53" fill="none">
        <path d="M30.75 2.75H23.125C19.7546 2.75 16.5221 4.00111 14.1389 6.22811C11.7556 8.4551 10.4167 11.4756 10.4167 14.625V21.75H2.79169V31.25H10.4167V50.25H20.5834V31.25H28.2084L30.75 21.75H20.5834V14.625C20.5834 13.9951 20.8511 13.391 21.3278 12.9456C21.8044 12.5002 22.4509 12.25 23.125 12.25H30.75V2.75Z" stroke="white" stroke-width="4" stroke-linecap="round" stroke-linejoin="round"/>
    </symbol>

    <symbol id="instagramIcon" width="57" height="58" viewBox="0 0 57 58" fill="none" >
        <path d="M41.5625 15.7084H41.5863M16.625 4.83337H40.375C46.9334 4.83337 52.25 10.2433 52.25 16.9167V41.0834C52.25 47.7568 46.9334 53.1667 40.375 53.1667H16.625C10.0666 53.1667 4.75 47.7568 4.75 41.0834V16.9167C4.75 10.2433 10.0666 4.83337 16.625 4.83337ZM38 27.4775C38.2931 29.4888 37.9555 31.5429 37.0352 33.3477C36.1149 35.1524 34.6587 36.616 32.8739 37.5301C31.089 38.4442 29.0663 38.7624 27.0935 38.4394C25.1207 38.1164 23.2982 37.1686 21.8852 35.7308C20.4723 34.2931 19.5409 32.4387 19.2234 30.4312C18.906 28.4238 19.2187 26.3656 20.117 24.5494C21.0154 22.7333 22.4537 21.2516 24.2273 20.3151C26.001 19.3787 28.0197 19.0351 29.9963 19.3334C32.0124 19.6376 33.879 20.5936 35.3203 22.0601C36.7615 23.5267 37.701 25.426 38 27.4775Z" stroke="white" stroke-width="4" stroke-linecap="round" stroke-linejoin="round"/>
    </symbol>



    <symbol id="SettingsIcon"  width="100%" height="100%" viewBox="0 0 932.179 932.179"  >
        <g>
            <path d="M61.2,341.538c4.9,16.8,11.7,33,20.3,48.2l-24.5,30.9c-8,10.1-7.1,24.5,1.9,33.6l42.2,42.2c9.1,9.1,23.5,9.899,33.6,1.899
        	l30.7-24.3c15.8,9.101,32.6,16.2,50.1,21.2l4.6,39.5c1.5,12.8,12.3,22.4,25.1,22.4h59.7c12.8,0,23.6-9.601,25.1-22.4l4.4-38.1
        	c18.8-4.9,36.8-12.2,53.7-21.7l29.7,23.5c10.1,8,24.5,7.1,33.6-1.9l42.2-42.2c9.1-9.1,9.9-23.5,1.9-33.6l-23.1-29.3
        	c9.6-16.601,17.1-34.3,22.1-52.8l35.6-4.1c12.801-1.5,22.4-12.3,22.4-25.1v-59.7c0-12.8-9.6-23.6-22.4-25.1l-35.1-4.1
        	c-4.801-18.3-12-35.8-21.199-52.2l21.6-27.3c8-10.1,7.1-24.5-1.9-33.6l-42.1-42.1c-9.1-9.1-23.5-9.9-33.6-1.9l-26.5,21
        	c-17.2-10.1-35.601-17.8-54.9-23l-4-34.3c-1.5-12.8-12.3-22.4-25.1-22.4h-59.7c-12.8,0-23.6,9.6-25.1,22.4l-4,34.3
        	c-19.8,5.3-38.7,13.3-56.3,23.8l-27.5-21.8c-10.1-8-24.5-7.1-33.6,1.9l-42.2,42.2c-9.1,9.1-9.9,23.5-1.9,33.6l23,29.1
        	c-9.2,16.6-16.2,34.3-20.8,52.7l-36.8,4.2c-12.8,1.5-22.4,12.3-22.4,25.1v59.7c0,12.8,9.6,23.6,22.4,25.1L61.2,341.538z
        	 M277.5,180.038c54.4,0,98.7,44.3,98.7,98.7s-44.3,98.7-98.7,98.7c-54.399,0-98.7-44.3-98.7-98.7S223.1,180.038,277.5,180.038z"/>
            <path d="M867.699,356.238l-31.5-26.6c-9.699-8.2-24-7.8-33.199,0.9l-17.4,16.3c-14.699-7.1-30.299-12.1-46.4-15l-4.898-24
        	c-2.5-12.4-14-21-26.602-20l-41.1,3.5c-12.6,1.1-22.5,11.4-22.9,24.1l-0.799,24.4c-15.801,5.7-30.701,13.5-44.301,23.3
        	l-20.799-13.8c-10.602-7-24.701-5-32.9,4.7l-26.6,31.7c-8.201,9.7-7.801,24,0.898,33.2l18.201,19.399
        	c-6.301,14.2-10.801,29.101-13.4,44.4l-26,5.3c-12.4,2.5-21,14-20,26.601l3.5,41.1c1.1,12.6,11.4,22.5,24.1,22.9l28.1,0.899
        	c5.102,13.4,11.801,26.101,19.9,38l-15.699,23.7c-7,10.6-5,24.7,4.699,32.9l31.5,26.6c9.701,8.2,24,7.8,33.201-0.9l20.6-19.3
        	c13.5,6.3,27.699,11,42.299,13.8l5.701,28.2c2.5,12.4,14,21,26.6,20l41.1-3.5c12.6-1.1,22.5-11.399,22.9-24.1l0.9-27.601
        	c15-5.3,29.199-12.5,42.299-21.399l22.701,15c10.6,7,24.699,5,32.9-4.7l26.6-31.5c8.199-9.7,7.799-24-0.9-33.2l-18.301-19.399
        	c6.701-14.2,11.602-29.2,14.4-44.601l25-5.1c12.4-2.5,21-14,20-26.601l-3.5-41.1c-1.1-12.6-11.4-22.5-24.1-22.9l-25.1-0.8
        	c-5.201-14.6-12.201-28.399-20.9-41.2l13.699-20.6C879.4,378.638,877.4,364.438,867.699,356.238z M712.801,593.837
        	c-44.4,3.801-83.602-29.3-87.301-73.699c-3.801-44.4,29.301-83.601,73.699-87.301c44.4-3.8,83.602,29.301,87.301,73.7
        	C790.301,550.938,757.199,590.138,712.801,593.837z"/>
            <path d="M205,704.438c-12.6,1.3-22.3,11.899-22.4,24.6l-0.3,25.3c-0.2,12.7,9.2,23.5,21.8,25.101l18.6,2.399
        	c3.1,11.301,7.5,22.101,13.2,32.301l-12,14.8c-8,9.899-7.4,24.1,1.5,33.2l17.7,18.1c8.9,9.1,23.1,10.1,33.2,2.3l14.899-11.5
        	c10.5,6.2,21.601,11.101,33.2,14.5l2,19.2c1.3,12.6,11.9,22.3,24.6,22.4l25.301,0.3c12.699,0.2,23.5-9.2,25.1-21.8l2.3-18.2
        	c12.601-3.101,24.601-7.8,36-14l14,11.3c9.9,8,24.101,7.4,33.201-1.5l18.1-17.7c9.1-8.899,10.1-23.1,2.301-33.2L496.6,818.438
        	c6.6-11,11.701-22.7,15.201-35l16.6-1.7c12.6-1.3,22.299-11.9,22.4-24.6l0.299-25.301c0.201-12.699-9.199-23.5-21.799-25.1
        	l-16.201-2.1c-3.1-12.2-7.699-24-13.699-35l10.1-12.4c8-9.9,7.4-24.1-1.5-33.2l-17.699-18.1c-8.9-9.101-23.102-10.101-33.201-2.3
        	l-12.101,9.3c-11.399-6.9-23.6-12.2-36.399-15.8l-1.601-15.7c-1.3-12.601-11.899-22.3-24.6-22.4l-25.3-0.3
        	c-12.7-0.2-23.5,9.2-25.101,21.8l-2,15.601c-13.199,3.399-25.899,8.6-37.699,15.399l-12.5-10.2c-9.9-8-24.101-7.399-33.201,1.5
        	l-18.2,17.801c-9.1,8.899-10.1,23.1-2.3,33.199l10.7,13.801c-6.2,11-11.1,22.699-14.3,35L205,704.438z M368.3,675.837
        	c36.3,0.4,65.399,30.301,65,66.601c-0.4,36.3-30.301,65.399-66.601,65c-36.3-0.4-65.399-30.3-65-66.601
        	C302.1,704.538,332,675.438,368.3,675.837z"/>
        </g>
    </symbol>

    <symbol id="HomeIcon" width="100%" height="100%" viewBox="0 0 16 16">
        <path d="m 8 1 c -0.207031 0 -0.410156 0.066406 -0.582031 0.183594 l -7 5 c -0.449219 0.324218 -0.554688 0.945312 -0.234375 1.394531 c 0.191406 0.265625 0.492187 0.421875 0.816406 0.417969 v 4.003906 c 0 1.644531 1.355469 3 3 3 h 8 c 1.644531 0 3 -1.320312 3 -3 v -4.003906 c 0.324219 0.003906 0.625 -0.152344 0.816406 -0.417969 c 0.320313 -0.449219 0.214844 -1.070313 -0.234375 -1.394531 l -7 -5 c -0.171875 -0.117188 -0.375 -0.183594 -0.582031 -0.183594 z m 0 2.226562 l 5 3.570313 v 5.203125 c 0 0.5625 -0.4375 1 -1 1 h -3 v -4 c 0 -0.554688 -0.445312 -1 -1 -1 h -1 c -0.554688 0 -1 0.445312 -1 1 v 4 h -2 c -0.5625 0 -1 -0.4375 -1 -1 v -5.203125 z m 0 0"/>
    </symbol>



    <symbol id="OpenEyeIcon" width="100%" height="100%" viewBox="0 0 442.04 442.04">
        <g>
        	<g>
        		<path d="M221.02,341.304c-49.708,0-103.206-19.44-154.71-56.22C27.808,257.59,4.044,230.351,3.051,229.203
        			c-4.068-4.697-4.068-11.669,0-16.367c0.993-1.146,24.756-28.387,63.259-55.881c51.505-36.777,105.003-56.219,154.71-56.219
        			c49.708,0,103.207,19.441,154.71,56.219c38.502,27.494,62.266,54.734,63.259,55.881c4.068,4.697,4.068,11.669,0,16.367
        			c-0.993,1.146-24.756,28.387-63.259,55.881C324.227,321.863,270.729,341.304,221.02,341.304z M29.638,221.021
        			c9.61,9.799,27.747,27.03,51.694,44.071c32.83,23.361,83.714,51.212,139.688,51.212s106.859-27.851,139.688-51.212
        			c23.944-17.038,42.082-34.271,51.694-44.071c-9.609-9.799-27.747-27.03-51.694-44.071
        			c-32.829-23.362-83.714-51.212-139.688-51.212s-106.858,27.85-139.688,51.212C57.388,193.988,39.25,211.219,29.638,221.021z"/>
        	</g>
            <g>
        		<path d="M221.02,298.521c-42.734,0-77.5-34.767-77.5-77.5c0-42.733,34.766-77.5,77.5-77.5c18.794,0,36.924,6.814,51.048,19.188
        			c5.193,4.549,5.715,12.446,1.166,17.639c-4.549,5.193-12.447,5.714-17.639,1.166c-9.564-8.379-21.844-12.993-34.576-12.993
        			c-28.949,0-52.5,23.552-52.5,52.5s23.551,52.5,52.5,52.5c28.95,0,52.5-23.552,52.5-52.5c0-6.903,5.597-12.5,12.5-12.5
        			s12.5,5.597,12.5,12.5C298.521,263.754,263.754,298.521,221.02,298.521z"/>
        	</g>
            <g>
        		<path d="M221.02,246.021c-13.785,0-25-11.215-25-25s11.215-25,25-25c13.786,0,25,11.215,25,25S234.806,246.021,221.02,246.021z"/>
        	</g>
        </g>
    </symbol>

    <symbol id="CloseEyeIcon" width="100%" height="100%" viewBox="0 0 24 24">
        <path d="M4.5 15.5C7.5 9 16.5 9 19.5 15.5" stroke="#000000" stroke-width="1.5" stroke-linecap="round" stroke-linejoin="round"/>
        <path d="M16.8162 12.1825L19.5 8.5" stroke="#000000" stroke-width="1.5" stroke-linecap="round" stroke-linejoin="round"/>
        <path d="M12 10.625V7" stroke="#000000" stroke-width="1.5" stroke-linecap="round" stroke-linejoin="round"/>
        <path d="M7.18383 12.1825L4.5 8.5" stroke="#000000" stroke-width="1.5" stroke-linecap="round" stroke-linejoin="round"/>
    </symbol>


    <symbol id="ChevronIcon" height="100%" width="100%" viewBox="0 0 185.343 185.343">
        <g>
        	<g>
        		<path  d="M51.707,185.343c-2.741,0-5.493-1.044-7.593-3.149c-4.194-4.194-4.194-10.981,0-15.175
        			l74.352-74.347L44.114,18.32c-4.194-4.194-4.194-10.987,0-15.175c4.194-4.194,10.987-4.194,15.18,0l81.934,81.934
        			c4.194,4.194,4.194,10.987,0,15.175l-81.934,81.939C57.201,184.293,54.454,185.343,51.707,185.343z"/>
        	</g>
        </g>
    </symbol>

    <symbol id="DoctorIcon"  width="100%" height="100%" viewBox="0 0 512 512" >
        <g>
        	<g>
        		<g>
        			<path d="M359.353,380.598c-9.421-4.971-32.608-18.128-42.642-27.56v-25.616c32.116-18.387,54.037-51.277,60.987-91.491
        				c18.189-5.216,34.019-22.287,34.019-37.988c0-15.889-11.938-26.433-31.672-28.62v-18.471c0.668-6.672,6.065-71.81-32.304-114.677
        				C326.256,12.172,295.39,0,256,0c-39.394,0-70.262,12.173-91.749,36.179c-38.367,42.869-32.964,108.006-32.296,114.674v18.469
        				c-19.734,2.187-31.672,12.731-31.672,28.62c0,15.707,15.842,32.786,34.019,37.992c6.952,40.22,28.872,73.107,60.987,91.489
        				v25.616c-10.039,9.438-33.249,22.604-42.66,27.569c-102.846,33.403-105.081,94.346-105.125,96.93L47.503,512h416.994v-34.365
        				C464.484,475.035,463.01,413.685,359.353,380.598z M380.044,185.267c14.09,1.981,15.811,9.268,15.811,12.676
        				c0,6.462-6.985,15.259-16.108,20.128C379.933,214.893,380.044,185.267,380.044,185.267z M116.145,197.943
        				c0-3.408,1.722-10.696,15.81-12.676c0,0,0.112,29.629,0.298,32.809C123.136,213.209,116.145,204.409,116.145,197.943z
        				 M176.129,46.694C194.475,26.236,221.348,15.863,256,15.863c34.648,0,61.518,10.372,79.865,30.828
        				c27.914,31.124,29.364,77.881,28.792,95.662c-62.093-2.481-108.869-34.996-109.347-35.332l-12.519-8.876v15.345
        				c0,6.385-12.829,15.658-48.833,22.534c-18.172,3.471-36.553,5.21-46.626,5.977C146.791,123.955,148.401,77.612,176.129,46.694z
        				 M149.15,228.251c-0.884-6.442-1.332-13.089-1.332-19.754v-50.615c10.25-0.756,29.488-2.537,48.972-6.248
        				c31.433-5.988,50.669-14.567,58.206-26.046c17.234,10.181,57.938,30.665,109.187,32.631v50.278
        				c0,6.665-0.448,13.311-1.333,19.759c-5.371,39.341-26.408,71.208-57.718,87.43c-14.785,7.662-31.315,11.547-49.13,11.547
        				s-34.347-3.885-49.133-11.547C175.558,299.47,154.521,267.603,149.15,228.251z M300.849,334.974v18.25
        				c-5.426,5.665-22.595,21.512-44.849,21.512c-22.11,0-39.398-15.878-44.849-21.528v-18.234
        				c13.937,5.386,28.966,8.121,44.849,8.121C271.882,343.095,286.911,340.359,300.849,334.974z M448.635,496.138H63.365v-18.366
        				c0.065-1.664,3.028-52.707,94.785-82.279c0,0,30.018-15.722,44.796-28.077c8.132,7.65,24.215,20.047,45.122,22.675v92.859h15.863
        				v-92.859c20.908-2.628,36.99-15.025,45.122-22.675c14.779,12.355,44.835,28.089,44.835,28.089
        				c26.88,8.513,63.057,24.548,82.761,52.6c11.315,16.108,11.96,28.993,11.985,29.649V496.138z"/>
                    <path d="M242.813,211.151L242.813,211.151h26.364v26.385h79.196v-68.642h-79.196v26.395h-26.364v-26.395h-79.196v68.642h79.196
        				V211.151z M285.039,184.756h47.471v36.917h-47.471V184.756z M226.95,221.674h-47.471v-36.917h47.471V221.674z"/>
                    <polygon points="263.931,245.446 248.069,245.446 248.069,279.762 277.108,279.762 277.108,263.9 263.931,263.9 			"/>
                    <rect x="314.057" y="448.635" width="84.452" height="15.862"/>
                    <rect x="213.774" y="401.132" width="21.108" height="15.863"/>
                    <rect x="213.774" y="432.793" width="21.108" height="15.863"/>
                    <rect x="213.774" y="464.465" width="21.108" height="15.863"/>
        		</g>
        	</g>
        </g>
    </symbol>

    <symbol width="100%" height="100%" id="PatientIcon"  viewBox="0 0 257.96 257.26">
        <g id="_Слой_1-2">
            <g>
                <g>
                    <circle class="cls-1" cx="96.22" cy="54.22" r="54.22"/>
                    <path class="cls-1" d="M74.78,206.33c-.56,18.44,2.33,18.75,2.33,18.75l-71.11-.08c-5.22.89-6-6-6-6v-43.33c1-40.22,44-46.98,44-46.98h103.11c27.78,4.46,34.33,22.32,34.33,22.32-24.44,3.11-24.56,31.44-31.94,31.86-1.97.11-8.96.64-9.17.25h-39.89c-17.11,1.67-25.67,22.67-25.67,22.67"/>
                </g>
                <g>
                    <rect class="cls-1" x="95.88" y="203.71" width="48.56" height="22" rx="9.5" ry="9.5"/>
                    <rect class="cls-1" x="116.1" y="219.73" width="58.31" height="22" rx="9.5" ry="9.5" transform="translate(252.55 -19.92) rotate(55.37)"/>
                    <path class="cls-1" d="M145.75,241.03l31.55-63.69c2.33-4.7,8.03-6.62,12.73-4.29l1.67.83c4.7,2.33,6.62,8.03,4.29,12.73l-30.52,64.85c-2.33,4.7-9.89,7.13-14.59,4.8h0c-5.62-2.79-7.92-9.6-5.14-15.23Z"/>
                    <path class="cls-1" d="M210.09,241.86l-32.81-55.28c-2.42-4.08-.73-9.56,3.78-12.24l1.6-.95c4.51-2.68,10.13-1.54,12.55,2.54l34.32,55c2.42,4.08.08,11.29-4.44,13.97h0c-5.4,3.2-12.12,1.84-15.02-3.04Z"/>
                    <rect class="cls-1" x="209.41" y="224.63" width="48.56" height="22" rx="9.5" ry="9.5"/>
                </g>
            </g>
        </g>
    </symbol>



    <symbol id="PCAndPhoneIcon" height="100%" width="100%"  viewBox="0 0 459.359 459.359">
        <g>
        	<path style="fill:#020202;" d="M162.152,45.256h242.922v155.985c1.209-0.106,2.381-0.362,3.605-0.362
        		c10.193,0,19.748,3.938,27.026,10.998c0.023-0.437,0.135-0.857,0.135-1.308V44.01c0-16.285-13.243-29.521-29.527-29.521H160.912
        		c-16.285,0-29.527,13.235-29.527,29.521v51.618h30.768V45.256z"/>
            <path style="fill:#020202;" d="M226.788,233.405l21.16-21.137c0.052-0.06,0.12-0.091,0.174-0.135v-61.67
        		c0-17.518-14.249-31.76-31.767-31.76H109.767c-17.518,0-31.766,14.242-31.766,31.76v43.446h14.774
        		c6.009,0,11.621,1.503,16.691,3.981l0.3-48.42h107.588v99.904C219.224,243.424,222.334,237.851,226.788,233.405z"/>
            <path style="fill:#020202;" d="M131.167,330.469v11.057h62.827v-11.057v-17.863c0-5.018,1.052-9.779,2.793-14.182h-65.62V330.469z
        		 M163.061,307.619c5.467,0,9.915,4.432,9.915,9.915c0,5.484-4.447,9.93-9.915,9.93c-5.469,0-9.916-4.445-9.916-9.93
        		C153.145,312.05,157.593,307.619,163.061,307.619z"/>
            <path style="fill:#020202;" d="M92.775,213.139H19.164C8.593,213.139,0,221.732,0,232.294v139.473
        		c0,10.561,8.593,19.154,19.164,19.154h73.612c10.568,0,19.162-8.593,19.162-19.154V232.294
        		C111.937,221.732,103.344,213.139,92.775,213.139z M55.977,384.101c-4.506,0-8.143-3.65-8.143-8.143
        		c0-4.492,3.637-8.127,8.143-8.127c4.476,0,8.113,3.635,8.113,8.127C64.09,380.451,60.453,384.101,55.977,384.101z M88.862,361.026
        		H23.075V236.214h65.787V361.026z"/>
            <path style="fill:#020202;" d="M451.24,304.495h-18.065c-2.261-8.924-5.784-17.322-10.396-25.029l12.807-12.814
        		c3.155-3.14,3.169-8.308,0-11.478l-21.168-21.152c-3.29-3.32-8.593-2.914-11.478,0c-13.07,13.069,0.271-0.271-12.799,12.8
        		c-0.023,0-0.039-0.015-0.06-0.03c-7.655-4.567-16-8.052-24.855-10.321c-0.031-0.015-0.06-0.015-0.091-0.03v-18.058
        		c0-4.477-3.635-8.111-8.12-8.111h-29.912c-4.484,0-8.12,3.635-8.12,8.111v18.058c-0.031,0.016-0.06,0.016-0.091,0.03
        		c-8.854,2.27-17.2,5.754-24.855,10.321c-0.022,0.016-0.037,0.03-0.06,0.03c-13.017-13.011,0.323,0.33-12.799-12.8
        		c-2.336-2.358-6.211-3.335-9.982-0.991c-2.05,1.262-20.957,20.446-22.663,22.144c-3.169,3.17-3.155,8.338,0,11.478l12.807,12.814
        		c-4.612,7.707-8.135,16.105-10.396,25.029H232.88c-4.484,0-8.12,3.635-8.12,8.111v29.926c0,4.477,3.635,8.113,8.12,8.113h18.064
        		c2.262,8.924,5.777,17.307,10.383,25.014c0,0,0.006,0,0.006,0.014l-12.799,12.801c-1.524,1.517-2.374,3.591-2.374,5.738
        		c0,2.148,0.857,4.221,2.374,5.739l21.167,21.152c1.585,1.577,3.666,2.372,5.738,2.372c2.074,0,4.155-0.795,5.739-2.372
        		l12.792-12.801c7.677,4.597,16.045,8.099,24.923,10.366c0.031,0.015,0.06,0.015,0.091,0.03v18.058c0,4.477,3.635,8.113,8.12,8.113
        		h29.912c4.484,0,8.12-3.637,8.12-8.113v-18.058c0.031-0.016,0.06-0.016,0.091-0.03c8.878-2.268,17.247-5.77,24.923-10.366
        		l12.792,12.801c3.178,3.153,8.301,3.153,11.478,0l21.168-21.152c3.169-3.171,3.155-8.338,0-11.478l-12.799-12.801
        		c0-0.014,0.006-0.014,0.006-0.014c4.605-7.707,8.121-16.09,10.382-25.014h18.065c4.484,0,8.119-3.637,8.119-8.113v-29.926
        		C459.359,308.129,455.725,304.495,451.24,304.495z M342.06,390.907c-34.921,0-63.33-28.409-63.33-63.337
        		c0-34.929,28.409-63.337,63.33-63.337c34.92,0,63.33,28.408,63.33,63.337C405.39,362.498,376.98,390.907,342.06,390.907z"/>
            <path style="fill:#020202;" d="M342.06,297.644c-16.518,0-29.918,13.4-29.918,29.926c0,16.525,13.401,29.926,29.918,29.926
        		c16.517,0,29.918-13.401,29.918-29.926C371.978,311.044,358.577,297.644,342.06,297.644z"/>
        </g>
    </symbol>


    <symbol id="LongRightArrowIcon" height="100%" width="100%" viewBox="0 0 330 330">
        <path id="XMLID_27_" d="M15,180h263.787l-49.394,49.394c-5.858,5.857-5.858,15.355,0,21.213C232.322,253.535,236.161,255,240,255
    	s7.678-1.465,10.606-4.394l75-75c5.858-5.857,5.858-15.355,0-21.213l-75-75c-5.857-5.857-15.355-5.857-21.213,0
    	c-5.858,5.857-5.858,15.355,0,21.213L278.787,150H15c-8.284,0-15,6.716-15,15S6.716,180,15,180z"/>
    </symbol>


    <symbol height="100%" width="100%" id="NewsIcon" viewBox="0 0 512 512">
        <g>
        	<g>
        		<path d="M503.847,281.546c4.504,0,8.153-3.649,8.153-8.153V164.688c0-23.676-19.262-42.938-42.938-42.938h-61.418V69.028
        			c0-4.504-3.649-8.153-8.153-8.153H8.153C3.649,60.875,0,64.524,0,69.028v247.847c0,4.504,3.649,8.153,8.153,8.153
        			c4.504,0,8.153-3.649,8.153-8.153V207.626h375.032v182.309v0.859c0,17.348,7.36,33.009,19.121,44.025H60.331
        			c-24.276,0-44.026-19.75-44.026-44.026v-30.437c0-4.504-3.649-8.153-8.153-8.153c-4.504,0-8.153,3.649-8.153,8.153v30.437
        			c0,33.267,27.064,60.331,60.331,60.331h391.338c0,0,0.001,0,0.002,0c0.003,0,0.008,0,0.011,0c15.929,0,30.911-6.126,42.287-17.313
        			C505.596,422.377,512,407.1,512,390.794v-73.919c0-4.504-3.649-8.153-8.153-8.153s-8.153,3.649-8.153,8.153v73.919
        			c0,11.899-4.673,23.048-13.158,31.392c-8.392,8.255-19.469,12.712-31.247,12.624c-1.701-0.014-3.401-0.13-5.088-0.342
        			c-21.651-2.765-38.558-21.811-38.558-44.532v-60.56h26.633c4.504,0,8.153-3.649,8.153-8.153V164.688
        			c0-14.686,11.947-26.633,26.633-26.633s26.633,11.947,26.633,26.633v108.705C495.694,277.896,499.344,281.546,503.847,281.546z
        			 M391.338,191.321H16.306V77.18h375.032V191.321z M426.123,164.688V313.07h-18.48V138.055h27.759
        			C429.595,145.38,426.123,154.636,426.123,164.688z"/>
        	</g>
        </g>
                <g>
        	<g>
        		<path d="M112.51,95.66c-4.504,0-8.153,3.649-8.153,8.153v38.836L66.521,98.507c-4.824-5.627-14.343-2.088-14.343,5.306v60.875
        			c0,4.504,3.649,8.153,8.153,8.153c4.504,0,8.153-3.649,8.153-8.153v-38.836l37.836,44.141c4.829,5.634,14.343,2.081,14.343-5.306
        			v-60.875C120.662,99.309,117.013,95.66,112.51,95.66z"/>
        	</g>
        </g>
                <g>
        	<g>
        		<path d="M182.081,156.535h-35.329v-18.48h17.936c4.504,0,8.153-3.649,8.153-8.153s-3.649-8.153-8.153-8.153h-17.936v-9.783h35.329
        			c4.504,0,8.153-3.649,8.153-8.153s-3.649-8.153-8.153-8.153h-43.482c-4.504,0-8.153,3.649-8.153,8.153v60.875
        			c0,4.504,3.649,8.153,8.153,8.153h43.482c4.504,0,8.153-3.649,8.153-8.153C190.234,160.184,186.584,156.535,182.081,156.535z"/>
        	</g>
        </g>
                <g>
        	<g>
        		<path d="M279.981,95.974c-4.329-1.242-8.843,1.269-10.078,5.598l-10.842,37.943l-8.536-21.339
        			c-1.239-3.096-4.236-5.125-7.57-5.125s-6.331,2.029-7.57,5.125l-8.536,21.339l-10.842-37.943c-1.237-4.33-5.753-6.84-10.078-5.598
        			c-4.329,1.237-6.836,5.749-5.598,10.078l17.393,60.875c0.958,3.352,3.941,5.724,7.422,5.903c3.5,0.195,6.691-1.877,7.987-5.115
        			l9.823-24.558l9.823,24.558c1.244,3.107,4.249,5.125,7.568,5.125c0.139,0,0.278-0.003,0.419-0.011
        			c3.482-0.178,6.465-2.55,7.422-5.903l17.393-60.875C286.818,101.724,284.31,97.212,279.981,95.974z"/>
        	</g>
        </g>
                <g>
        	<g>
        		<path d="M347.312,130.446h-35.329v-18.48h35.329c4.504,0,8.153-3.649,8.153-8.153s-3.649-8.153-8.153-8.153H303.83
        			c-4.504,0-8.153,3.649-8.153,8.153v34.786c0,4.504,3.649,8.153,8.153,8.153h35.329v9.783H303.83c-4.504,0-8.153,3.649-8.153,8.153
        			c0,4.504,3.649,8.153,8.153,8.153h43.482c4.504,0,8.153-3.649,8.153-8.153v-26.089
        			C355.465,134.095,351.816,130.446,347.312,130.446z"/>
        	</g>
        </g>
                <g>
        	<g>
        		<path d="M164.688,226.106H60.331c-4.504,0-8.153,3.649-8.153,8.153v86.964c0,4.504,3.649,8.153,8.153,8.153h104.357
        			c4.504,0,8.153-3.649,8.153-8.153v-86.964C172.841,229.755,169.192,226.106,164.688,226.106z M156.535,313.07H68.484v-70.658
        			h88.051V313.07z"/>
        	</g>
        </g>
                <g>
        	<g>
        		<path d="M347.312,269.588h-121.75c-4.504,0-8.153,3.649-8.153,8.153c0,4.504,3.649,8.153,8.153,8.153h121.75
        			c4.504,0,8.153-3.649,8.153-8.153C355.465,273.237,351.816,269.588,347.312,269.588z"/>
        	</g>
        </g>
                <g>
        	<g>
        		<path d="M347.312,226.106h-121.75c-4.504,0-8.153,3.649-8.153,8.153s3.649,8.153,8.153,8.153h121.75
        			c4.504,0,8.153-3.649,8.153-8.153S351.816,226.106,347.312,226.106z"/>
        	</g>
        </g>
                <g>
        	<g>
        		<path d="M347.312,313.07h-121.75c-4.504,0-8.153,3.649-8.153,8.153s3.649,8.153,8.153,8.153h121.75
        			c4.504,0,8.153-3.649,8.153-8.153S351.816,313.07,347.312,313.07z"/>
        	</g>
        </g>
                <g>
        	<g>
        		<path d="M347.312,356.552h-121.75c-4.504,0-8.153,3.649-8.153,8.153s3.649,8.153,8.153,8.153h121.75
        			c4.504,0,8.153-3.649,8.153-8.153S351.816,356.552,347.312,356.552z"/>
        	</g>
        </g>
                <g>
        	<g>
        		<path d="M173.384,356.552H51.635c-4.504,0-8.153,3.649-8.153,8.153s3.649,8.153,8.153,8.153h121.749
        			c4.504,0,8.153-3.649,8.153-8.153S177.888,356.552,173.384,356.552z"/>
        	</g>
        </g>
                <g>
        	<g>
        		<path d="M173.384,400.034H51.635c-4.504,0-8.153,3.649-8.153,8.153c0,4.504,3.649,8.153,8.153,8.153h121.749
        			c4.504,0,8.153-3.649,8.153-8.153C181.537,403.683,177.888,400.034,173.384,400.034z"/>
        	</g>
        </g>
                <g>
        	<g>
        		<path d="M347.312,400.034h-121.75c-4.504,0-8.153,3.649-8.153,8.153c0,4.504,3.649,8.153,8.153,8.153h121.75
        			c4.504,0,8.153-3.649,8.153-8.153C355.465,403.683,351.816,400.034,347.312,400.034z"/>
        	</g>
        </g>
    </symbol>


    <svg height="100%" width="100%" version="1.1" id="AddCloudIcon"  viewBox="0 0 512 512" >
        <g>
        	<g>
        		<path d="M473.545,205.969c-21.302-23.099-49.181-38.512-79.664-44.282c-8.71-26.095-24.843-49.509-46.387-66.993
        			C321.728,73.785,289.236,62.27,256,62.27s-65.728,11.514-91.492,32.422c-21.544,17.484-37.679,40.898-46.387,66.993
        			c-30.483,5.77-58.364,21.183-79.664,44.282C13.657,232.862,0,267.83,0,304.432C0,384.549,65.18,449.73,145.297,449.73h221.405
        			C446.82,449.73,512,384.549,512,304.432C512,267.83,498.343,232.862,473.545,205.969z M366.703,408.216H145.297
        			c-57.226,0-103.784-46.557-103.784-103.784c0-53.388,41.605-98.799,94.719-103.385l15.165-1.309l3.31-14.858
        			c10.47-46.991,53.07-81.097,101.293-81.097c48.224,0,90.823,34.106,101.293,81.097l3.31,14.858l15.165,1.309
        			c53.114,4.586,94.719,49.997,94.719,103.385C470.487,361.659,423.929,408.216,366.703,408.216z"/>
        	</g>
        </g>
                <g>
        	<g>
        		<polygon points="276.757,256 276.757,193.73 235.243,193.73 235.243,256 172.973,256 172.973,297.514 235.243,297.514
        			235.243,359.784 276.757,359.784 276.757,297.514 339.027,297.514 339.027,256 		"/>
        	</g>
        </g>
    </svg>


    <symbol id="HeartBeatIcon" width="100%" height="100%" viewBox="0 0 48 48">
        <path d="M26,46.58A2,2,0,0,1,24.58,46C21.73,43.12,7.45,28.68,6,26.31A13.81,13.81,0,0,1,9.47,8.15a11.61,11.61,0,0,1,9.16-2A12.1,12.1,0,0,1,26,10.93a12.1,12.1,0,0,1,7.37-4.78,11.61,11.61,0,0,1,9.16,2A13.81,13.81,0,0,1,46,26.31C44.55,28.69,30.27,43.12,27.42,46A2,2,0,0,1,26,46.58ZM16.32,9.92A7.73,7.73,0,0,0,11.8,11.4,9.75,9.75,0,0,0,9.42,24.23c0.83,1.36,9.75,10.6,16.58,17.51,6.83-6.91,15.75-16.15,16.58-17.51l1.71,1-1.71-1A9.75,9.75,0,0,0,40.2,11.4a7.66,7.66,0,0,0-6-1.33A8.26,8.26,0,0,0,28.77,14a12.81,12.81,0,0,0-.9,2,2,2,0,0,1-3.74,0,12.85,12.85,0,0,0-.9-2,8.26,8.26,0,0,0-5.4-3.91A7.62,7.62,0,0,0,16.32,9.92Z" fill="#2161ff"/><path d="M23,32h0a2,2,0,0,1-1.71-1l-4.42-8.1-2.17,3.25A2,2,0,0,1,13,27H2a2,2,0,0,1,0-4h9.93l3.41-5.11A2,2,0,0,1,17.09,17a2,2,0,0,1,1.67,1L23.08,26l1.2-2A2,2,0,0,1,26,23h5a2,2,0,0,1,0,4H27.13l-2.42,4A2,2,0,0,1,23,32Z"/>
    </symbol>



</svg>