<svg xmlns="http://www.w3.org/2000/svg" style="display: none;">
    <symbol id="SearchIcon" viewBox="0 0 58.95 57.55">
        <g id="_Слой_6">
            <g>
                <circle class="cls-2" cx="20.81" cy="20.81" r="19.81"/>
                <rect class="cls-1" x="32.8" y="43.26" width="27.43" height="3.73" transform="translate(45.53 -19.68) rotate(45)"/>
            </g>
        </g>
    </symbol>

    <symbol id="LogoIcon" viewBox="0 0 187 160" width="187" height="160" fill="none">
        <g id="_Слой_6">
            <g>
                <path d="M128.407 117.568L99.7333 79.616L112.325 72.512L140.936 110.4L128.407 117.568Z" fill="#B5B5B5"/>
                <path d="M65.2007 40.1279H49.181V109.376H65.2007V40.1279Z" fill="#898989"/>
                <path d="M132.396 121.984C139.04 121.984 144.426 116.74 144.426 110.272C144.426 103.804 139.04 98.5601 132.396 98.5601C125.752 98.5601 120.366 103.804 120.366 110.272C120.366 116.74 125.752 121.984 132.396 121.984Z" fill="white"/>
                <path d="M131.897 116.096C135.03 116.096 137.57 113.489 137.57 110.272C137.57 107.055 135.03 104.448 131.897 104.448C128.765 104.448 126.225 107.055 126.225 110.272C126.225 113.489 128.765 116.096 131.897 116.096Z" fill="#898989"/>
                <path d="M93.2507 35.84C96.1181 35.328 100.481 34.688 105.717 34.688C111.826 34.688 115.94 34.688 120.677 36.864C122.672 37.76 127.783 40.128 131.336 46.08C135.575 53.12 136.198 62.976 132.209 70.912C131.835 71.616 128.095 78.976 120.428 81.856C118.932 82.432 116.937 82.944 107.4 82.816C101.728 82.752 96.9907 82.432 93.6871 82.24" fill="#B5B5B5"/>
                <path d="M99.6086 49.472C100.855 49.216 102.725 48.96 105.032 48.96C107.712 48.96 109.457 48.96 111.514 49.856C112.387 50.24 114.631 51.2 116.189 53.696C117.997 56.64 118.309 60.736 116.563 64.064C116.439 64.384 114.756 67.392 111.452 68.672C110.766 68.928 109.956 69.12 105.78 69.056C103.286 68.992 101.229 68.928 99.7956 68.8" fill="white"/>
                <path d="M101.229 34.624H85.2097V117.504H101.229V34.624Z" fill="#1A357A"/>
                <path d="M117.748 67.7759H29.4214V84.2239H117.748V67.7759Z" fill="#1A357A"/>
                <path d="M66.198 39.2319C63.767 51.9039 47.498 60.9279 43.197 57.5999C39.457 54.7199 43.384 41.5999 49.9914 33.5359" fill="white"/>
            </g>
        </g>
    </symbol>



    <symbol id="StarIcon" width="40" height="35" viewBox="0 0 40 35" fill="none">
        <path d="M20 0L26.4656 10.5458L39.0211 13.1287L30.4616 22.2292L31.7557 34.3713L20 29.45L8.2443 34.3713L9.53838 22.2292L0.97887 13.1287L13.5344 10.5458L20 0Z" fill="#FFDA47"/>
    </symbol>

    <symbol id="GeoLocationICon" width="90" height="89" viewBox="0 0 90 89" fill="none">
        <path d="M44.1131 80.462C43.2577 80.4479 42.5284 80.1943 41.9253 79.7009C41.3223 79.2076 40.8744 78.5658 40.5818 77.7755C39.4764 74.3735 38.062 71.178 36.3387 68.1889C34.6764 65.2008 32.3199 61.6876 29.2692 57.6495C26.2184 53.6113 23.7452 49.7639 21.8494 46.1073C20.0148 42.4516 19.1397 38.0565 19.224 32.9217C19.3401 25.8539 21.913 19.9142 26.9427 15.1024C32.0346 10.2312 38.155 7.85432 45.304 7.97177C52.453 8.08921 58.4615 10.6653 63.3295 15.7001C68.2595 20.6755 70.6665 26.6971 70.5504 33.7649C70.4601 39.2621 69.3154 43.8356 67.1162 47.4854C64.9792 51.0758 62.5066 54.6304 59.6984 58.1493C56.3274 62.4446 53.7626 66.0279 52.0041 68.8994C50.3077 71.7115 48.8833 74.7094 47.7308 77.8929C47.4114 78.7336 46.9117 79.3901 46.2316 79.8623C45.6136 80.2752 44.9075 80.475 44.1131 80.462ZM44.7383 42.4046C47.3047 42.4468 49.4882 41.6065 51.289 39.8838C53.0897 38.161 54.011 36.0311 54.0526 33.4939C54.0943 30.9568 53.2436 28.7977 51.5003 27.0167C49.7571 25.2358 47.6024 24.3242 45.0361 24.2821C42.4697 24.2399 40.2862 25.0802 38.4854 26.8029C36.6847 28.5257 35.7635 30.6556 35.7218 33.1928C35.6801 35.7299 36.5309 37.889 38.2741 39.6699C40.0173 41.4509 42.172 42.3625 44.7383 42.4046Z" fill="#1A357A"/>
    </symbol>

    <symbol id="PhoneIcon" width="82" height="84" viewBox="0 0 82 84" fill="none">
        <g clip-path="url(#clip0_116_937)">
            <path d="M66.0978 61.6443L64.4229 70.487C64.2706 71.3085 63.9555 72.0906 63.4979 72.783C63.0403 73.4755 62.4501 74.0631 61.7653 74.5083C61.0805 74.9534 60.3161 75.2463 59.521 75.3682C58.726 75.49 57.9178 75.4381 57.1483 75.2158C48.6426 72.5838 40.8801 67.9029 34.4845 61.5492C28.5165 55.7309 23.8737 48.5968 20.8857 40.6534C17.5683 32.0595 16.2557 22.7418 17.0542 13.4552C17.138 12.6267 17.3864 11.8228 17.7837 11.0946C18.1809 10.3664 18.7183 9.7299 19.3616 9.22561C20.0049 8.72131 20.7399 8.36027 21.52 8.16548C22.3001 7.97069 23.1081 7.94642 23.8926 8.09421L32.3669 9.69935C33.7405 9.94494 34.9735 10.7032 35.8363 11.8329C36.699 12.9625 37.1326 14.3865 37.0562 15.8393C36.8778 18.7369 37.0149 21.6412 37.4647 24.4966C37.6449 25.6236 37.51 26.7857 37.0759 27.8454C36.6418 28.905 35.9268 29.8176 35.0155 30.4752L30.719 33.5391C33.3424 41.6802 38.0406 48.8994 44.3177 54.435L48.6143 51.371C49.5324 50.724 50.6055 50.3615 51.7064 50.3265C52.8073 50.2915 53.8898 50.5855 54.8258 51.1736C57.1996 52.6569 59.7313 53.8535 62.3726 54.7404C63.7065 55.2023 64.8231 56.1608 65.5099 57.4338C66.1968 58.7067 66.406 60.2052 66.0978 61.6443Z" stroke="#1A357A" stroke-width="4" stroke-linecap="round" stroke-linejoin="round"/>
        </g>
        <defs>
            <clipPath id="clip0_116_937">
                <rect width="69" height="72" fill="white" transform="translate(13.3994) rotate(10.7255)"/>
            </clipPath>
        </defs>
    </symbol>

    <symbol id="EmailIcon" width="67" height="67" viewBox="0 0 67 67" fill="none">
        <path fill-rule="evenodd" clip-rule="evenodd" d="M0 13.1607C0 9.19606 3.21396 5.98212 7.17857 5.98212H59.8214C63.7859 5.98212 67 9.19606 67 13.1607V14.7972L35.3348 35.911C34.8882 36.1982 34.24 36.4031 33.5 36.4031C32.76 36.4031 32.1117 36.1982 31.6651 35.911L0 14.7972V13.1607ZM0 21.9872V53.8393C0 57.8037 3.21396 61.0178 7.17857 61.0178H59.8214C63.7859 61.0178 67 57.8037 67 53.8393V21.9872L38.6094 40.9176C37.1036 41.8978 35.2953 42.3853 33.5 42.3853C31.7047 42.3853 29.8965 41.8976 28.3906 40.9174L28.3629 40.8994L0 21.9872Z" fill="#1A357A"/>
    </symbol>

    <symbol id="FaceBookIcon" width="61" height="57" viewBox="0 0 61 57" fill="none">
        <path d="M45.75 4.75H38.125C34.7545 4.75 31.5221 6.00111 29.1388 8.22811C26.7556 10.4551 25.4167 13.4756 25.4167 16.625V23.75H17.7917V33.25H25.4167V52.25H35.5833V33.25H43.2083L45.75 23.75H35.5833V16.625C35.5833 15.9951 35.8511 15.391 36.3278 14.9456C36.8044 14.5002 37.4509 14.25 38.125 14.25H45.75V4.75Z" stroke="#7B9ABB" stroke-width="4" stroke-linecap="round" stroke-linejoin="round"/>
    </symbol>


    <symbol id="InstagramIcon" width="57" height="58" viewBox="0 0 57 58" fill="none" >
        <path d="M41.5625 15.7083H41.5863M16.625 4.83331H40.375C46.9334 4.83331 52.25 10.2432 52.25 16.9166V41.0833C52.25 47.7568 46.9334 53.1666 40.375 53.1666H16.625C10.0666 53.1666 4.75 47.7568 4.75 41.0833V16.9166C4.75 10.2432 10.0666 4.83331 16.625 4.83331ZM38 27.4775C38.2931 29.4887 37.9555 31.5428 37.0352 33.3476C36.1149 35.1524 34.6587 36.6159 32.8739 37.53C31.089 38.4442 29.0663 38.7623 27.0935 38.4393C25.1207 38.1163 23.2982 37.1685 21.8852 35.7308C20.4723 34.2931 19.5409 32.4386 19.2234 30.4312C18.906 28.4237 19.2187 26.3656 20.117 24.5494C21.0154 22.7332 22.4537 21.2515 24.2273 20.3151C26.001 19.3786 28.0197 19.0351 29.9963 19.3333C32.0124 19.6375 33.879 20.5935 35.3203 22.0601C36.7615 23.5266 37.701 25.4259 38 27.4775Z" stroke="#7B9ABB" stroke-width="4" stroke-linecap="round" stroke-linejoin="round"/>
    </symbol>

</svg>