<svg xmlns="http://www.w3.org/2000/svg" style="display: none;">
    <symbol id="SearchIcon" viewBox="0 0 58.95 57.55">
        <g id="_Слой_6">
            <g>
                <circle class="cls-2" cx="20.81" cy="20.81" r="19.81"/>
                <rect class="cls-1" x="32.8" y="43.26" width="27.43" height="3.73" transform="translate(45.53 -19.68) rotate(45)"/>
            </g>
        </g>
    </symbol>

    <symbol id="LogoIcon" viewBox="0 0 187 160" width="187" height="160" fill="none">
        <g id="_Слой_6">
            <g>
                <path d="M128.407 117.568L99.7333 79.616L112.325 72.512L140.936 110.4L128.407 117.568Z" fill="#B5B5B5"/>
                <path d="M65.2007 40.1279H49.181V109.376H65.2007V40.1279Z" fill="#898989"/>
                <path d="M132.396 121.984C139.04 121.984 144.426 116.74 144.426 110.272C144.426 103.804 139.04 98.5601 132.396 98.5601C125.752 98.5601 120.366 103.804 120.366 110.272C120.366 116.74 125.752 121.984 132.396 121.984Z" fill="white"/>
                <path d="M131.897 116.096C135.03 116.096 137.57 113.489 137.57 110.272C137.57 107.055 135.03 104.448 131.897 104.448C128.765 104.448 126.225 107.055 126.225 110.272C126.225 113.489 128.765 116.096 131.897 116.096Z" fill="#898989"/>
                <path d="M93.2507 35.84C96.1181 35.328 100.481 34.688 105.717 34.688C111.826 34.688 115.94 34.688 120.677 36.864C122.672 37.76 127.783 40.128 131.336 46.08C135.575 53.12 136.198 62.976 132.209 70.912C131.835 71.616 128.095 78.976 120.428 81.856C118.932 82.432 116.937 82.944 107.4 82.816C101.728 82.752 96.9907 82.432 93.6871 82.24" fill="#B5B5B5"/>
                <path d="M99.6086 49.472C100.855 49.216 102.725 48.96 105.032 48.96C107.712 48.96 109.457 48.96 111.514 49.856C112.387 50.24 114.631 51.2 116.189 53.696C117.997 56.64 118.309 60.736 116.563 64.064C116.439 64.384 114.756 67.392 111.452 68.672C110.766 68.928 109.956 69.12 105.78 69.056C103.286 68.992 101.229 68.928 99.7956 68.8" fill="white"/>
                <path d="M101.229 34.624H85.2097V117.504H101.229V34.624Z" fill="#1A357A"/>
                <path d="M117.748 67.7759H29.4214V84.2239H117.748V67.7759Z" fill="#1A357A"/>
                <path d="M66.198 39.2319C63.767 51.9039 47.498 60.9279 43.197 57.5999C39.457 54.7199 43.384 41.5999 49.9914 33.5359" fill="white"/>
            </g>
        </g>
    </symbol>

    <symbol id="StarIcon" width="40" height="35" viewBox="0 0 40 35" fill="none">
        <path d="M20 0L26.4656 10.5458L39.0211 13.1287L30.4616 22.2292L31.7557 34.3713L20 29.45L8.2443 34.3713L9.53838 22.2292L0.97887 13.1287L13.5344 10.5458L20 0Z" fill="#FFDA47"/>
    </symbol>

    <symbol id="GeoLocationICon" width="90" height="89" viewBox="0 0 90 89" fill="none">
        <path d="M44.1131 80.462C43.2577 80.4479 42.5284 80.1943 41.9253 79.7009C41.3223 79.2076 40.8744 78.5658 40.5818 77.7755C39.4764 74.3735 38.062 71.178 36.3387 68.1889C34.6764 65.2008 32.3199 61.6876 29.2692 57.6495C26.2184 53.6113 23.7452 49.7639 21.8494 46.1073C20.0148 42.4516 19.1397 38.0565 19.224 32.9217C19.3401 25.8539 21.913 19.9142 26.9427 15.1024C32.0346 10.2312 38.155 7.85432 45.304 7.97177C52.453 8.08921 58.4615 10.6653 63.3295 15.7001C68.2595 20.6755 70.6665 26.6971 70.5504 33.7649C70.4601 39.2621 69.3154 43.8356 67.1162 47.4854C64.9792 51.0758 62.5066 54.6304 59.6984 58.1493C56.3274 62.4446 53.7626 66.0279 52.0041 68.8994C50.3077 71.7115 48.8833 74.7094 47.7308 77.8929C47.4114 78.7336 46.9117 79.3901 46.2316 79.8623C45.6136 80.2752 44.9075 80.475 44.1131 80.462ZM44.7383 42.4046C47.3047 42.4468 49.4882 41.6065 51.289 39.8838C53.0897 38.161 54.011 36.0311 54.0526 33.4939C54.0943 30.9568 53.2436 28.7977 51.5003 27.0167C49.7571 25.2358 47.6024 24.3242 45.0361 24.2821C42.4697 24.2399 40.2862 25.0802 38.4854 26.8029C36.6847 28.5257 35.7635 30.6556 35.7218 33.1928C35.6801 35.7299 36.5309 37.889 38.2741 39.6699C40.0173 41.4509 42.172 42.3625 44.7383 42.4046Z" fill="#1A357A"/>
    </symbol>

    <symbol id="PhoneIcon" width="82" height="84" viewBox="0 0 82 84" fill="none">
        <g clip-path="url(#clip0_116_937)">
            <path d="M66.0978 61.6443L64.4229 70.487C64.2706 71.3085 63.9555 72.0906 63.4979 72.783C63.0403 73.4755 62.4501 74.0631 61.7653 74.5083C61.0805 74.9534 60.3161 75.2463 59.521 75.3682C58.726 75.49 57.9178 75.4381 57.1483 75.2158C48.6426 72.5838 40.8801 67.9029 34.4845 61.5492C28.5165 55.7309 23.8737 48.5968 20.8857 40.6534C17.5683 32.0595 16.2557 22.7418 17.0542 13.4552C17.138 12.6267 17.3864 11.8228 17.7837 11.0946C18.1809 10.3664 18.7183 9.7299 19.3616 9.22561C20.0049 8.72131 20.7399 8.36027 21.52 8.16548C22.3001 7.97069 23.1081 7.94642 23.8926 8.09421L32.3669 9.69935C33.7405 9.94494 34.9735 10.7032 35.8363 11.8329C36.699 12.9625 37.1326 14.3865 37.0562 15.8393C36.8778 18.7369 37.0149 21.6412 37.4647 24.4966C37.6449 25.6236 37.51 26.7857 37.0759 27.8454C36.6418 28.905 35.9268 29.8176 35.0155 30.4752L30.719 33.5391C33.3424 41.6802 38.0406 48.8994 44.3177 54.435L48.6143 51.371C49.5324 50.724 50.6055 50.3615 51.7064 50.3265C52.8073 50.2915 53.8898 50.5855 54.8258 51.1736C57.1996 52.6569 59.7313 53.8535 62.3726 54.7404C63.7065 55.2023 64.8231 56.1608 65.5099 57.4338C66.1968 58.7067 66.406 60.2052 66.0978 61.6443Z" stroke="#1A357A" stroke-width="4" stroke-linecap="round" stroke-linejoin="round"/>
        </g>
        <defs>
            <clipPath id="clip0_116_937">
                <rect width="69" height="72" fill="white" transform="translate(13.3994) rotate(10.7255)"/>
            </clipPath>
        </defs>
    </symbol>

    <symbol id="EmailIcon" width="67" height="67" viewBox="0 0 67 67" fill="none">
        <path fill-rule="evenodd" clip-rule="evenodd" d="M0 13.1607C0 9.19606 3.21396 5.98212 7.17857 5.98212H59.8214C63.7859 5.98212 67 9.19606 67 13.1607V14.7972L35.3348 35.911C34.8882 36.1982 34.24 36.4031 33.5 36.4031C32.76 36.4031 32.1117 36.1982 31.6651 35.911L0 14.7972V13.1607ZM0 21.9872V53.8393C0 57.8037 3.21396 61.0178 7.17857 61.0178H59.8214C63.7859 61.0178 67 57.8037 67 53.8393V21.9872L38.6094 40.9176C37.1036 41.8978 35.2953 42.3853 33.5 42.3853C31.7047 42.3853 29.8965 41.8976 28.3906 40.9174L28.3629 40.8994L0 21.9872Z" fill="#1A357A"/>
    </symbol>

    <symbol id="FaceBookIcon" width="61" height="57" viewBox="0 0 61 57" fill="none">
        <path d="M45.75 4.75H38.125C34.7545 4.75 31.5221 6.00111 29.1388 8.22811C26.7556 10.4551 25.4167 13.4756 25.4167 16.625V23.75H17.7917V33.25H25.4167V52.25H35.5833V33.25H43.2083L45.75 23.75H35.5833V16.625C35.5833 15.9951 35.8511 15.391 36.3278 14.9456C36.8044 14.5002 37.4509 14.25 38.125 14.25H45.75V4.75Z" stroke="#7B9ABB" stroke-width="4" stroke-linecap="round" stroke-linejoin="round"/>
    </symbol>


    <symbol id="InstagramIcon" width="57" height="58" viewBox="0 0 57 58" fill="none" >
        <path d="M41.5625 15.7083H41.5863M16.625 4.83331H40.375C46.9334 4.83331 52.25 10.2432 52.25 16.9166V41.0833C52.25 47.7568 46.9334 53.1666 40.375 53.1666H16.625C10.0666 53.1666 4.75 47.7568 4.75 41.0833V16.9166C4.75 10.2432 10.0666 4.83331 16.625 4.83331ZM38 27.4775C38.2931 29.4887 37.9555 31.5428 37.0352 33.3476C36.1149 35.1524 34.6587 36.6159 32.8739 37.53C31.089 38.4442 29.0663 38.7623 27.0935 38.4393C25.1207 38.1163 23.2982 37.1685 21.8852 35.7308C20.4723 34.2931 19.5409 32.4386 19.2234 30.4312C18.906 28.4237 19.2187 26.3656 20.117 24.5494C21.0154 22.7332 22.4537 21.2515 24.2273 20.3151C26.001 19.3786 28.0197 19.0351 29.9963 19.3333C32.0124 19.6375 33.879 20.5935 35.3203 22.0601C36.7615 23.5266 37.701 25.4259 38 27.4775Z" stroke="#7B9ABB" stroke-width="4" stroke-linecap="round" stroke-linejoin="round"/>
    </symbol>

    <symbol id="EmailFormIcon" width="27" height="17" viewBox="0 0 27 17" fill="none" >
        <path d="M0 0V2.73438L13.3611 8.20312L26.7222 2.73438V0H0ZM0 5.46875V16.4062H26.7222V5.46875L13.3611 10.9375L0 5.46875Z" fill="#0D3290" fill-opacity="0.59"/>
    </symbol>

    <symbol id="LockFormIcon" width="25" height="29" viewBox="0 0 25 29"  fill="none" >
        <path d="M12.3333 0C7.81111 0 4.11111 3.68437 4.11111 8.1875V12.2812H0V28.6562H24.6667V12.2812H20.5556V8.1875C20.5556 3.68437 16.8556 0 12.3333 0ZM12.3333 4.09375C14.6356 4.09375 16.4444 5.895 16.4444 8.1875V12.2812H8.22222V8.1875C8.22222 5.895 10.0311 4.09375 12.3333 4.09375Z" fill="#0D3290" fill-opacity="0.59"/>
    </symbol>

    <symbol id="DateFormIcon" width="26" height="28" viewBox="0 0 26 28"  fill="none" >
        <path d="M7.33333 20.9602V20.8571M13.3333 20.9602V20.8571M13.3333 15.3714V15.2683M18.6667 15.3714V15.2683M3.33333 9.88567H22M5.74603 2V4.05738M19.3333 2V4.05713M19.3333 4.05713H6C3.79086 4.05713 2 5.89915 2 8.1714V21.8857C2 24.158 3.79086 26 6 26H19.3333C21.5425 26 23.3333 24.158 23.3333 21.8857L23.3333 8.1714C23.3333 5.89915 21.5425 4.05713 19.3333 4.05713Z" stroke="#6B81B8" stroke-width="4" stroke-linecap="round" stroke-linejoin="round"/>
    </symbol>

    <symbol id="AddressFormIcon" width="28" height="28" viewBox="0 0 28 28" fill="none">
    <path d="M10.25 25.6667V14H17.75V25.6667M2.75 10.5L14 2.33337L25.25 10.5V23.3334C25.25 23.9522 24.9866 24.5457 24.5178 24.9833C24.0489 25.4209 23.413 25.6667 22.75 25.6667H5.25C4.58696 25.6667 3.95107 25.4209 3.48223 24.9833C3.01339 24.5457 2.75 23.9522 2.75 23.3334V10.5Z" stroke="#6B81B8" stroke-width="4" stroke-linecap="round" stroke-linejoin="round"/>
    </symbol>

    <symbol id="PhoneFormIcon" width="24" height="25" viewBox="0 0 24 25" fill="none">
    <g clip-path="url(#clip0_147_121)">
        <rect width="24" height="25" fill="white"/>
        <path d="M21.9999 17.625V20.75C22.0011 21.0401 21.944 21.3273 21.8324 21.5931C21.7209 21.8589 21.5572 22.0975 21.352 22.2936C21.1468 22.4897 20.9045 22.6391 20.6407 22.732C20.3769 22.8249 20.0973 22.8595 19.8199 22.8334C16.7428 22.4851 13.7869 21.3898 11.1899 19.6354C8.77376 18.0361 6.72527 15.9023 5.18993 13.3854C3.49991 10.6679 2.44818 7.57397 2.11993 4.35419C2.09494 4.06613 2.12781 3.77581 2.21643 3.50171C2.30506 3.22761 2.4475 2.97574 2.6347 2.76212C2.82189 2.54851 3.04974 2.37784 3.30372 2.26098C3.55771 2.14412 3.83227 2.08363 4.10993 2.08335H7.10993C7.59524 2.07838 8.06572 2.25739 8.43369 2.58703C8.80166 2.91667 9.04201 3.37444 9.10993 3.87502C9.23656 4.87509 9.47138 5.85703 9.80993 6.8021C9.94448 7.17494 9.9736 7.58014 9.89384 7.96969C9.81408 8.35923 9.6288 8.7168 9.35993 9.00002L8.08993 10.3229C9.51349 12.9308 11.5864 15.0901 14.0899 16.5729L15.3599 15.25C15.6318 14.97 15.9751 14.7769 16.3491 14.6939C16.723 14.6108 17.112 14.6411 17.4699 14.7813C18.3772 15.1339 19.3199 15.3785 20.2799 15.5104C20.7657 15.5818 21.2093 15.8367 21.5265 16.2266C21.8436 16.6165 22.0121 17.1142 21.9999 17.625Z" fill="white" stroke="#6B81B8" stroke-width="3" stroke-linecap="round" stroke-linejoin="round"/>
    </g>
    <defs>
        <clipPath id="clip0_147_121">
            <rect width="24" height="25" fill="white"/>
        </clipPath>
    </defs>
    </symbol>

    <symbol id="HumanFormIcon" width="24" height="20" viewBox="0 0 24 20" fill="none">
        <path d="M12 0C8.7 0 6 2.8 6 6.25C6 9.7 8.7 12.5 12 12.5C15.3 12.5 18 9.7 18 6.25C18 2.8 15.3 0 12 0ZM5.73 12.5C2.55 12.625 0 14.8 0 17.5V20H24V17.5C24 14.8 21.48 12.625 18.27 12.5C16.65 14.025 14.43 15 12 15C9.57 15 7.35 14.025 5.73 12.5Z" fill="#0D3290" fill-opacity="0.59"/>
    </symbol>





</svg>